<svg width="270" height="270" viewBox="0 0 270 270" fill="none" xmlns="http://www.w3.org/2000/svg">
  <style>
    path { fill: #334155; stroke: #334155; }
    @media (prefers-color-scheme: dark) {
      path { fill: #fff; stroke: #fff; }
    }
  </style>
  <path fill-rule="evenodd" clip-rule="evenodd" d="M223.047 33.8125H46.5771C43.457 33.8125 40.4646 35.052 38.2583 37.2583C36.052 39.4646 34.8125 42.457 34.8125 45.5771V74.6214C34.8125 77.7414 36.052 80.7334 38.2583 82.9407C40.4646 85.147 43.457 86.3861 46.5771 86.3861C49.6974 86.3861 52.6899 85.147 54.896 82.9407C57.1024 80.7334 58.342 77.7414 58.342 74.6214V57.342H211.283V210.283H194.003C190.883 210.283 187.891 211.523 185.684 213.728C183.478 215.934 182.238 218.927 182.238 222.047C182.238 225.167 183.478 228.161 185.684 230.367C187.891 232.573 190.883 233.812 194.003 233.812H223.047C226.167 233.812 229.161 232.573 231.367 230.367C233.573 228.161 234.812 225.167 234.812 222.047V45.5771C234.812 42.457 233.573 39.4646 231.367 37.2583C229.161 35.052 226.167 33.8125 223.047 33.8125ZM58.342 210.283H128.931V139.694H58.342V210.283ZM140.694 116.166H46.5771C43.457 116.166 40.4646 117.406 38.2583 119.612C36.052 121.817 34.8125 124.811 34.8125 127.931V222.047C34.8125 225.167 36.052 228.161 38.2583 230.367C40.4646 232.573 43.457 233.812 46.5771 233.812H140.694C143.816 233.812 146.808 232.573 149.013 230.367C151.221 228.161 152.459 225.167 152.459 222.047V127.931C152.459 124.811 151.221 121.817 149.013 119.612C146.808 117.406 143.816 116.166 140.694 116.166Z" stroke-width="6" />
</svg>
