<svg width="32" height="32" viewBox="0 0 32 32" fill="none" xmlns="http://www.w3.org/2000/svg">
<rect width="32" height="32" rx="3" fill="#01093C"/>
<path fill-rule="evenodd" clip-rule="evenodd" d="M23.9411 7H8.05882C7.77801 7 7.50869 7.11156 7.31012 7.31012C7.11155 7.50869 7 7.778 7 8.05882V10.6728C7 10.9536 7.11155 11.2229 7.31012 11.4215C7.50869 11.6201 7.77801 11.7316 8.05882 11.7316C8.33964 11.7316 8.60896 11.6201 8.80752 11.4215C9.00609 11.2229 9.11765 10.9536 9.11765 10.6728V9.11765H22.8824V22.8824H21.3272C21.0464 22.8824 20.777 22.994 20.5785 23.1924C20.3799 23.391 20.2683 23.6603 20.2683 23.9411C20.2683 24.2219 20.3799 24.4913 20.5785 24.6899C20.777 24.8884 21.0464 25 21.3272 25H23.9411C24.2219 25 24.4913 24.8884 24.6899 24.6899C24.8884 24.4913 25 24.2219 25 23.9411V8.05882C25 7.778 24.8884 7.50869 24.6899 7.31012C24.4913 7.11156 24.2219 7 23.9411 7ZM9.11765 22.8824H15.4706V16.5294H9.11765V22.8824ZM16.5294 14.4118H8.05882C7.77801 14.4118 7.50869 14.5234 7.31012 14.7219C7.11155 14.9204 7 15.1898 7 15.4706V23.9411C7 24.2219 7.11155 24.4913 7.31012 24.6899C7.50869 24.8884 7.77801 25 8.05882 25H16.5294C16.8103 25 17.0796 24.8884 17.2781 24.6899C17.4767 24.4913 17.5882 24.2219 17.5882 23.9411V15.4706C17.5882 15.1898 17.4767 14.9204 17.2781 14.7219C17.0796 14.5234 16.8103 14.4118 16.5294 14.4118Z" fill="white" stroke="white"/>
</svg>
