<svg width="32" height="32" viewBox="0 0 32 32" fill="none" xmlns="http://www.w3.org/2000/svg">
<path d="M29 0H3C1.34315 0 0 1.34315 0 3V29C0 30.6569 1.34315 32 3 32H29C30.6569 32 32 30.6569 32 29V3C32 1.34315 30.6569 0 29 0Z" fill="white"/>
<path fill-rule="evenodd" clip-rule="evenodd" d="M25.7058 5H6.29411C5.9509 5 5.62173 5.13635 5.37904 5.37904C5.13634 5.62173 5 5.95089 5 6.29411V9.48898C5 9.83218 5.13634 10.1613 5.37904 10.4041C5.62173 10.6468 5.9509 10.7831 6.29411 10.7831C6.63734 10.7831 6.96651 10.6468 7.20919 10.4041C7.45189 10.1613 7.58824 9.83218 7.58824 9.48898V7.58824H24.4118V24.4118H22.511C22.1678 24.4118 21.8386 24.5482 21.5959 24.7907C21.3532 25.0334 21.2168 25.3626 21.2168 25.7058C21.2168 26.049 21.3532 26.3783 21.5959 26.621C21.8386 26.8636 22.1678 27 22.511 27H25.7058C26.049 27 26.3783 26.8636 26.621 26.621C26.8636 26.3783 27 26.049 27 25.7058V6.29411C27 5.95089 26.8636 5.62173 26.621 5.37904C26.3783 5.13635 26.049 5 25.7058 5ZM7.58824 24.4118H15.353V16.647H7.58824V24.4118ZM16.647 14.0589H6.29411C5.9509 14.0589 5.62173 14.1953 5.37904 14.4379C5.13634 14.6805 5 15.0098 5 15.353V25.7058C5 26.049 5.13634 26.3783 5.37904 26.621C5.62173 26.8636 5.9509 27 6.29411 27H16.647C16.9904 27 17.3195 26.8636 17.5621 26.621C17.8049 26.3783 17.9411 26.049 17.9411 25.7058V15.353C17.9411 15.0098 17.8049 14.6805 17.5621 14.4379C17.3195 14.1953 16.9904 14.0589 16.647 14.0589Z" fill="#01093C" stroke="#01093C"/>
</svg>
